<svg width="31" height="30" viewBox="0 0 31 30" fill="none" xmlns="http://www.w3.org/2000/svg">
<g clip-path="url(#clip0_1076_27601)">
<path d="M25.5005 3.23693C25.7174 3.29888 25.7639 3.20079 25.7588 2.99945C25.7484 2.31798 25.7588 1.64168 25.7588 0.960214C25.7588 0.258097 26.0119 0.00512834 26.73 -3.42829e-05C26.9005 -3.42829e-05 27.0762 -0.0155222 27.2363 0.0154536C27.5824 0.0825677 27.7788 0.30456 27.8046 0.655619C27.8252 0.908587 27.8046 1.16672 27.8046 1.54359C28.1197 0.975701 28.5692 0.924075 29.0548 0.960214C29.5663 0.996352 29.8607 1.27513 29.8917 1.78623C29.9124 2.16827 29.9176 2.5503 29.8917 2.93234C29.8711 3.21112 29.9744 3.26274 30.2275 3.25758C30.4083 3.25758 30.7183 3.30921 30.7441 3.39697C30.8113 3.66027 30.7906 3.95453 30.7441 4.22815C30.7338 4.2901 30.4755 4.36238 30.3412 4.34173C29.9434 4.27978 29.8556 4.46047 29.8917 4.81153C29.9176 5.07999 29.8969 5.34844 29.9021 5.6169C29.9072 6.03507 29.8349 6.40678 29.3803 6.57198C28.8636 6.763 28.2747 6.64942 27.9751 6.2932C27.9337 6.24674 27.8924 6.19511 27.8304 6.11251C27.7736 6.66491 27.9802 7.25345 27.381 7.58386C27.35 7.58902 27.3241 7.59418 27.2931 7.59935C26.9263 7.59935 26.5544 7.59935 26.1876 7.59418C25.8724 7.3567 25.7484 7.04178 25.7588 6.64426C25.7743 5.96796 25.7588 5.29165 25.7639 4.61019C25.7639 4.41917 25.7226 4.35206 25.5108 4.33657C25.02 4.30043 24.6532 4.37787 24.3794 4.87864C24.0229 5.52913 23.5528 6.11251 23.1292 6.72686C21.972 8.33244 20.7734 9.90704 19.6679 11.5488C18.7948 12.8394 18.4383 14.3108 18.4228 15.875C18.3918 18.9416 19.518 21.714 20.5616 24.5121C20.9697 25.6995 21.3779 26.8921 21.7912 28.0795C21.8325 28.1982 21.8893 28.3066 21.941 28.4254C21.9616 28.6887 22.0443 28.9674 21.9823 29.2101C21.8325 29.8503 21.1402 30.2065 20.3963 29.8141C20.1483 29.3805 19.8952 28.9416 19.6472 28.508C19.642 28.4667 19.6472 28.4202 19.6265 28.3841C18.6656 26.0299 17.6995 23.6758 16.7386 21.3216C16.563 20.8931 16.2737 20.5833 15.8036 20.5833C15.3128 20.5833 15.0183 20.9034 14.8426 21.3474C14.4345 22.3799 14.0161 23.4073 13.5976 24.4347C13.05 25.7873 12.5024 27.1399 11.9547 28.4925C11.8153 28.7816 11.6809 29.0707 11.5415 29.3598C11.2831 29.8864 10.751 30.1135 10.2344 29.9277C9.72296 29.7418 9.44398 29.1688 9.6403 28.6061C10.3894 26.4429 11.154 24.2849 11.9083 22.1218C11.9341 22.0444 11.9444 21.9618 11.9651 21.8792C12.7452 19.9225 13.1895 17.9039 13.1688 15.7924C13.1533 14.2436 12.771 12.7981 11.9031 11.5229C10.8595 9.98448 9.73329 8.49764 8.64323 6.99016C8.07495 6.16414 7.51183 5.33812 6.94355 4.5121C6.85056 4.37271 5.98264 4.25913 5.88449 4.38303C5.83282 4.45015 5.83799 4.56889 5.83799 4.66181C5.83799 5.34328 5.83799 6.02475 5.83799 6.70105C5.83799 7.32573 5.55902 7.59935 4.93391 7.60967C4.79442 7.60967 4.64977 7.60967 4.51028 7.60967C4.06083 7.58386 3.81285 7.34122 3.78185 6.89207C3.76635 6.65975 3.78185 6.42227 3.78185 6.25706C3.51838 6.38613 3.26523 6.59264 2.98626 6.62877C2.04085 6.763 1.69472 6.42743 1.69472 5.46718C1.69472 5.35361 1.69472 5.24003 1.69472 5.12645C1.69472 4.89929 1.76704 4.61535 1.66372 4.46563C1.58106 4.34689 1.26076 4.41401 1.05928 4.34689C0.955952 4.31592 0.857795 4.18169 0.816465 4.07328C0.775136 3.9597 0.816465 3.82031 0.800967 3.6964C0.764804 3.37116 0.888792 3.19563 1.22976 3.25758C1.63789 3.32986 1.73605 3.13884 1.69472 2.77229C1.66888 2.50384 1.69472 2.23538 1.68955 1.96692C1.67922 1.57457 1.76188 1.20286 2.16484 1.0583C2.62463 0.898262 3.11025 0.862124 3.52871 1.20802C3.6062 1.26997 3.66303 1.35257 3.78702 1.49713C3.78702 1.17188 3.76635 0.91375 3.78702 0.660781C3.82318 0.273585 4.05049 0.0464293 4.44312 0.0154536C4.62394 -3.42836e-05 4.80992 0.00512834 4.9959 0.010291C5.53835 0.0206162 5.82766 0.304561 5.83283 0.851799C5.84316 1.55908 5.84316 2.27152 5.83283 2.9788C5.83283 3.19563 5.87932 3.27823 6.1118 3.26791C6.48376 3.24726 6.82473 3.29888 7.13987 2.95299C7.52733 2.52965 8.05945 2.63807 8.43658 3.05108C8.55024 3.16982 8.76721 3.25242 8.9377 3.25242C11.7481 3.26274 14.5533 3.26274 17.3637 3.26274C19.1357 3.26274 20.9077 3.26274 22.6849 3.25242C22.8399 3.25242 23.0465 3.18014 23.1499 3.06656C23.5322 2.64323 24.0436 2.53481 24.4466 2.9375C24.7772 3.26791 25.113 3.29372 25.5108 3.24726L25.5005 3.23693ZM9.40782 4.36754C9.46465 4.45531 9.49048 4.50177 9.52148 4.54824C10.4462 5.83373 11.3503 7.13471 12.306 8.39955C13.4581 9.91736 15.5039 10.5111 17.2966 9.81411C17.8855 9.58179 18.5313 9.25655 18.9188 8.78675C20.0708 7.38252 21.104 5.88536 22.2251 4.37271H9.40782V4.36754Z" fill="#121212"/>
<path d="M15.7951 9.37952C14.5862 9.37952 13.5788 8.36765 13.584 7.1596C13.5892 5.95154 14.6069 4.94483 15.8158 4.95516C16.9988 4.96032 17.9959 5.96703 18.0063 7.1596C18.0166 8.36765 17.0092 9.37952 15.7951 9.37952Z" fill="#121212"/>
</g>
<defs>
<clipPath id="clip0_1076_27601">
<rect width="30" height="30" fill="white" transform="translate(0.787109)"/>
</clipPath>
</defs>
</svg>
