<svg width="30" height="22" viewBox="0 0 30 22" fill="none" xmlns="http://www.w3.org/2000/svg">
<g clip-path="url(#clip0_1076_27271)">
<path d="M22.0028 21.0061C22.0028 21.5058 21.7062 21.9092 21.3369 21.9092C21.3369 21.9092 20.0554 22.1802 19.77 21.7527C19.6749 21.6142 19.6581 20.8375 19.6581 20.5244C19.6581 18.8025 19.6581 17.5381 19.6581 15.8162C19.6581 14.9371 19.4734 14.5458 19.0426 14.5879C18.4438 14.6421 18.4494 15.2562 18.4494 15.8523C18.4494 17.6947 18.4494 19.543 18.4494 21.4276C18.4494 21.6804 18.2983 21.8851 18.1136 21.8851H11.46C11.2753 21.8851 11.1243 21.6804 11.1243 21.4336C11.1243 20.976 11.1243 20.5124 11.1243 20.0488C11.1243 18.5737 11.1243 17.1046 11.1243 15.6295C11.1243 15.0877 11.0235 14.6 10.5367 14.5879C10.0163 14.5759 9.91553 15.0756 9.91553 15.6596C9.91553 17.5742 9.91553 19.4889 9.91553 21.4396C9.91553 21.6925 9.76444 21.8972 9.57977 21.8972H7.89538C7.71072 21.8972 7.55963 21.6925 7.55963 21.4396V20.404C7.55963 18.1342 7.5988 15.8643 7.54843 13.5945C7.51486 12.011 8.02409 10.8851 9.05375 10.3493C10.1058 9.79537 11.2194 9.35586 12.3386 9.12707C14.7896 8.62132 17.2351 8.84409 19.6189 9.8315C20.1562 10.0543 20.671 10.4336 21.141 10.855C21.6671 11.3247 22.014 12.0291 22.014 12.9202C22.0252 15.5934 22.0196 18.2666 22.014 21.0061H22.0028Z" fill="#00162A"/>
<path d="M17.695 3.51594C17.7006 4.70806 17.3704 5.92426 16.4695 6.88759C15.4734 7.95327 14.1248 7.95929 13.1175 6.91769C11.9479 5.71353 11.4835 3.25704 12.127 1.66153C12.6251 0.421248 14.1024 -0.265123 15.507 0.0961246C17.0403 0.487477 17.7118 1.49295 17.695 3.51594Z" fill="#00162A"/>
<path d="M7.05176 5.96673C7.09652 6.80965 6.86149 7.55623 6.31868 8.16433C5.70313 8.85672 4.91969 8.85672 4.28175 8.19443C3.54868 7.42979 3.25769 5.8704 3.655 4.85891C3.94599 4.11835 4.73502 3.727 5.65276 3.8715C6.45858 3.99793 6.98461 4.57593 7.05176 5.41282C7.06854 5.59344 7.05176 5.78009 7.05176 5.96673Z" fill="#00162A"/>
<path d="M25.8763 5.49741C25.9155 6.34032 25.6748 7.0869 25.1264 7.695C24.5109 8.37535 23.7106 8.36933 23.0839 7.70102C22.3676 6.93638 22.0766 5.34689 22.4795 4.35346C22.7761 3.6129 23.5819 3.22757 24.4885 3.38411C25.2943 3.52861 25.8147 4.10059 25.8707 4.93748C25.8819 5.1181 25.8707 5.30475 25.8707 5.49139L25.8763 5.49741Z" fill="#00162A"/>
<path d="M29.9993 12.1074C30.0385 11.0176 29.6076 10.2711 28.6955 9.98206C27.6155 9.63285 26.4963 9.3559 25.3771 9.21742C23.7934 9.01873 22.2545 9.46427 20.7324 9.94594C21.9076 10.6022 22.2825 11.2826 22.5175 12.8901C22.6239 13.6246 22.691 15.184 22.4224 17.1528C22.6351 17.1709 26.7257 17.5743 26.9719 16.6651C27.0447 16.3822 27.0111 15.5874 27.0111 15.2382C27.0111 14.2568 26.9663 14.0642 27.0671 13.0948C27.1006 12.7878 27.5147 12.3482 27.8057 12.288C28.2814 12.1917 28.1807 12.6673 28.2086 13.2152C28.2198 13.4862 28.2086 13.7631 28.2086 14.0341C28.2086 14.883 28.2086 15.7259 28.2086 16.5748C28.2086 16.918 28.8578 17.1227 29.1767 17.1227H29.4006C29.7196 17.1227 29.977 16.8458 29.977 16.5026C29.9714 15.0215 29.9434 13.5705 29.9938 12.1194L29.9993 12.1074Z" fill="#00162A"/>
<path d="M-0.000263404 12.1744C-0.0338392 11.1448 0.363475 10.4464 1.22525 10.1694C2.24372 9.84432 3.29576 9.57941 4.34781 9.45297C5.83633 9.26633 7.28569 9.68176 8.71826 10.1393C7.61026 10.7595 7.25771 11.3977 7.03947 12.9089C6.93874 13.6013 6.87719 15.0704 7.129 16.9188C6.92755 16.9368 3.07752 17.3101 2.84809 16.4552C2.77534 16.1902 2.81451 15.4437 2.80891 15.1125C2.80891 14.1913 2.84809 14.0107 2.75295 13.0956C2.72497 12.8066 2.82011 12.3851 2.54031 12.3309C2.09263 12.2406 1.81283 12.6199 1.79045 13.1377C1.77926 13.3966 1.79045 13.6495 1.79045 13.9084C1.79045 14.7031 1.79045 15.5039 1.79045 16.2986C1.79045 16.6177 1.06297 16.8887 0.766385 16.8887H0.553738C0.257151 16.8887 0.0109285 16.6237 0.0109285 16.3046C0.0165245 14.9138 0.0389084 13.5471 -0.00585938 12.1804L-0.000263404 12.1744Z" fill="#00162A"/>
</g>
<defs>
<clipPath id="clip0_1076_27271">
<rect width="30" height="22" fill="white"/>
</clipPath>
</defs>
</svg>
