<svg width="139" height="34" viewBox="0 0 139 34" fill="none" xmlns="http://www.w3.org/2000/svg">
<path d="M13.0039 16.7828C17.4082 11.1948 29.5547 0 46.1148 0C57.7386 0 66.5402 6.62406 66.5402 6.62406C59.9958 3.4386 34.1114 -1.73688 13.7399 17.1063L13.0039 16.7828Z" fill="#004A8D"/>
<path d="M25.0647 22.6377C25.5054 20.4742 27.0078 19.0632 29.3166 19.0632C31.6606 19.0632 33.1279 20.5047 33.4584 22.6377H25.0647ZM65.1864 18.7584C65.6341 18.7584 66.0701 18.7936 66.4967 18.8592V15.2589C65.7068 15.1511 64.8653 15.0972 63.9535 15.0972C57.6248 15.0972 52.8478 18.885 52.8478 23.9503C52.8478 24.2972 52.8712 24.6348 52.9134 24.9629C51.9852 23.4019 49.9248 22.6096 46.9949 22.0048C43.2633 21.2477 42.7476 20.9172 42.8226 20.0945C42.8929 19.3116 44.1469 18.592 46.0174 18.592C47.2129 18.592 48.8161 18.8756 50.2413 19.5413V15.7722C48.8654 15.3503 47.3652 15.0714 45.7455 15.0714C41.0365 15.0714 37.8768 17.3286 37.626 20.425C37.6237 20.4438 37.6237 20.4625 37.6213 20.4836C36.4845 17.4318 33.8288 15.1417 29.2534 15.1417C23.7497 15.1417 19.9876 19.1663 19.9876 24.0464C19.9876 24.1707 19.99 24.2926 19.9947 24.4145C18.9586 22.1689 16.2584 21.1329 12.6159 20.3383C8.31233 19.4148 7.69821 18.9905 7.69821 18.0084C7.69821 17.0661 8.79987 16.2621 10.5133 16.2996C11.847 16.3278 12.6416 16.6465 13.0073 16.7778C14.0715 15.4581 15.213 14.1947 16.4248 12.9923C14.6223 12.336 12.6557 11.9961 10.5321 11.9961C5.41284 11.9961 1.83594 14.5581 1.83594 18.4092C1.83594 21.3626 3.38061 22.708 6.08556 23.6269C6.23088 23.6714 6.65514 23.8027 6.89891 23.8824C7.82947 24.1519 8.87488 24.391 10.0211 24.6371C14.2449 25.5442 14.5965 26.306 14.5965 27.1428C14.5965 28.1296 13.4222 28.7203 11.4556 28.7203C9.20772 28.7203 7.12628 28.057 4.94639 26.6483C3.83066 28.1601 2.67742 29.8173 2.0633 30.8346C4.80106 32.3253 7.99824 33.2442 11.3525 33.2442C16.8186 33.2442 20.2689 30.8908 20.4518 27.0374C21.6073 30.5486 24.8444 32.827 29.2135 32.827C30.055 32.827 31.2645 32.7988 33.2545 32.3043V28.5609C31.4051 29.0954 30.6105 29.1516 29.5253 29.0954C27.3524 28.9828 25.578 27.757 25.067 25.6099H38.2144C38.2495 25.1692 38.2823 24.8879 38.2823 24.4168V24.3535C38.2823 23.8917 38.2566 23.4323 38.2073 22.9799C39.2059 24.3582 41.3975 24.9207 44.4048 25.5278C48.0661 26.2709 48.27 26.8311 48.27 27.689C48.27 28.4461 47.2949 29.3157 45.1314 29.2454C42.9093 29.1704 40.3075 28.5094 38.2987 27.3749V31.6972C40.3942 32.6348 43.0523 33.2184 45.1173 33.2184C50.0702 33.2184 53.4689 30.3166 53.4689 27.1827C53.4689 27.1124 53.4666 27.0444 53.4642 26.9788C54.3409 29.0321 56.0637 30.5908 58.0209 31.5425C59.9711 32.4918 62.0596 32.7895 63.7754 32.8012C64.7833 32.8082 65.6576 32.7355 66.499 32.6019V28.9453C66.0748 29.0133 65.6365 29.0485 65.1888 29.0485C61.5251 29.0485 58.5506 26.742 58.5506 23.8988C58.5483 21.0626 61.5205 18.7584 65.1864 18.7584Z" fill="#004A8D"/>
<path d="M7.06238 23.9438C5.73101 25.4908 3.1081 29.1029 2.06035 30.8397C1.029 30.2373 0.485202 29.8482 0 29.4756C1.5939 27.734 4.03163 25.1626 6.02869 23.6133C6.03104 23.6156 6.94284 23.8992 7.06238 23.9438Z" fill="#004A8D"/>
<path d="M110.164 31.7207C110.129 31.7207 110.091 31.7231 110.054 31.7231C108.556 31.7231 107.468 30.7644 107.468 29.4424V29.4119C107.468 28.1485 108.556 27.1593 109.946 27.1593C110.021 27.1593 110.091 27.1617 110.162 27.1664V25.6475C110.098 25.6451 110.03 25.6451 109.965 25.6451C107.553 25.6451 105.666 26.9273 105.267 28.7251C105.096 27.3 104.107 26.4702 102.103 26.4702C102.014 26.4702 101.702 26.4726 101.618 26.4749V28.0079C102.014 28.0126 102.555 28.0782 102.797 28.2048C103.151 28.3923 103.336 28.7064 103.345 29.133C102.862 29.0767 102.314 29.0369 101.838 29.0251C99.9559 28.9759 98.9972 29.5807 98.7675 30.5534V29.5596C98.7675 27.8461 97.7198 26.5101 95.5047 26.5101C93.4749 26.5101 92.4248 27.6305 92.2607 29.133C92.0028 27.6516 90.9363 26.4374 88.8807 26.4374C86.7969 26.4374 85.3389 27.9258 85.3389 29.733V29.7565C85.3389 29.801 85.3389 29.8455 85.3413 29.8901C84.9241 29.208 83.9958 28.8353 82.6457 28.5446C81.0401 28.2024 80.8127 28.0383 80.8127 27.5297V27.5063C80.8127 27.1312 81.2253 26.8335 82.0082 26.8335C82.4066 26.8335 82.9293 26.9414 83.295 27.0773V25.4576C82.9551 25.399 82.4324 25.3311 82.0363 25.3311C80.1377 25.3311 78.7852 26.2593 78.7852 27.661V27.6821C78.7852 29.215 79.9923 29.6463 81.8628 30.0424C83.4145 30.3729 83.5622 30.5956 83.5622 31.0246V31.0457C83.5622 31.498 83.0583 31.7746 82.2215 31.7746C81.1596 31.7746 80.4564 31.4113 79.6196 30.837L78.4102 32.0395C79.5259 32.8669 80.7729 33.2748 82.1793 33.2748C84.1248 33.2748 85.5077 32.4638 85.5874 31.0128C86.1148 32.2458 87.4321 33.0287 89.0776 33.0287C89.1385 33.0287 89.3401 33.0216 89.401 33.0193V31.5754C89.3495 31.5777 89.1573 31.5871 89.1033 31.5871C88.1939 31.5871 87.554 31.1629 87.3524 30.3471H92.2325V32.9115H94.2859V29.4353C94.3234 28.8001 94.5718 28.0524 95.5 28.0524C96.4236 28.0524 96.6931 28.8025 96.7306 29.4353V32.9115H98.7652V31.5215C99.0066 32.4778 99.9958 32.9935 101.165 32.9935C102.155 32.9935 102.837 32.6724 103.329 32.1895V32.9185H105.293V30.2792C105.746 31.9926 107.621 33.2396 109.93 33.2396C110.012 33.2396 110.084 33.2373 110.162 33.2349V31.7207H110.164ZM103.352 30.6542C103.177 31.5801 102.22 31.7184 102.005 31.7301C100.46 31.8121 100.404 30.755 100.924 30.4339C101.622 30.0002 103.359 30.244 103.359 30.244C103.359 30.3073 103.376 30.4643 103.352 30.6542ZM87.3313 29.222C87.4907 28.4063 88.0392 27.8743 88.883 27.8743C89.7362 27.8743 90.273 28.4181 90.3925 29.222H87.3313Z" fill="#004A8D"/>
<path d="M80.3346 13.6228V15.1112H83.8271V16.7262H80.3346V19.9656H78.4102V12.0078H84.6756V13.6228H80.3346Z" fill="#004A8D"/>
<path d="M87.5613 15.1353C87.1417 15.1353 86.7995 15.2525 86.5369 15.4845C86.2744 15.7166 86.101 16.033 86.0166 16.4292H89.0637C89.0028 16.0401 88.8458 15.726 88.5949 15.4892C88.3395 15.2525 87.9972 15.1353 87.5613 15.1353ZM88.9934 19.91C88.6278 20.0014 88.3301 20.0576 88.1004 20.0764C87.8707 20.0951 87.6808 20.1045 87.5284 20.1045C87.0245 20.1045 86.5674 20.0272 86.1596 19.8701C85.7517 19.7131 85.4001 19.4951 85.1071 19.2161C84.8141 18.9372 84.5868 18.6044 84.425 18.2153C84.2656 17.8262 84.1836 17.3972 84.1836 16.9331C84.1836 16.4901 84.2656 16.0752 84.4297 15.6838C84.5938 15.2947 84.8235 14.9548 85.1165 14.6642C85.4095 14.3735 85.7634 14.1461 86.176 13.9774C86.5885 13.8086 87.0432 13.7266 87.5378 13.7266C88.1168 13.7266 88.6137 13.818 89.0262 14.0008C89.4388 14.1836 89.7763 14.4298 90.0388 14.7392C90.3014 15.0486 90.4959 15.4025 90.6225 15.8033C90.7491 16.2041 90.8123 16.619 90.8123 17.0456V17.0691C90.8123 17.1534 90.81 17.2261 90.8077 17.2871C90.803 17.348 90.7983 17.416 90.7912 17.4933H86.0166C86.115 17.8824 86.3119 18.1848 86.6073 18.3981C86.9003 18.6114 87.2472 18.7309 87.6433 18.752C87.8332 18.7684 88.023 18.7614 88.2105 18.7356C88.3981 18.7098 88.6582 18.6489 88.9958 18.5575V19.91H88.9934Z" fill="#004A8D"/>
<path d="M90.8164 16.8855C90.8164 16.3816 90.9031 15.9456 91.0742 15.5799C91.2454 15.2143 91.468 14.9049 91.7376 14.6588C92.0095 14.4103 92.3166 14.2158 92.6588 14.0751C93.0033 13.9345 93.3432 13.8313 93.6784 13.7657C94.0136 13.7001 94.3324 13.6696 94.6301 13.6743C94.9277 13.679 95.1715 13.7024 95.3637 13.7493V15.0432C95.1574 15.0127 94.9066 15.0174 94.6089 15.0549C94.3113 15.0924 94.0206 15.1838 93.7393 15.3245C93.4557 15.4651 93.2166 15.662 93.0174 15.9151C92.8182 16.1683 92.7197 16.4918 92.7197 16.8879C92.7197 17.284 92.8182 17.6122 93.0174 17.8677C93.2166 18.1232 93.4534 18.32 93.7323 18.4583C94.0112 18.5966 94.3019 18.681 94.6019 18.7162C94.9043 18.7513 95.1574 18.7443 95.3637 18.6998V20.0288C95.1715 20.0757 94.9277 20.0991 94.6301 20.1038C94.3324 20.1085 94.0159 20.078 93.6784 20.0124C93.3432 19.9468 93.0033 19.8436 92.6588 19.703C92.3142 19.5624 92.0071 19.3678 91.7376 19.1193C91.4657 18.8709 91.2454 18.5662 91.0742 18.2028C90.9008 17.8348 90.8164 17.3965 90.8164 16.8855Z" fill="#004A8D"/>
<path d="M98.8073 18.6723C99.105 18.6723 99.3465 18.6278 99.534 18.534C99.7215 18.4426 99.8668 18.3161 99.9746 18.1567C100.082 17.9973 100.153 17.8074 100.193 17.5894C100.23 17.3714 100.249 17.1417 100.249 16.8956C100.249 16.6518 100.23 16.4198 100.193 16.2018C100.155 15.9838 100.082 15.7963 99.9746 15.6346C99.8668 15.4752 99.7215 15.3462 99.534 15.2501C99.3465 15.154 99.105 15.1072 98.8073 15.1072C98.5097 15.1072 98.2682 15.154 98.0807 15.2501C97.8932 15.3462 97.7455 15.4728 97.64 15.6346C97.5322 15.7939 97.4619 15.9838 97.4221 16.2018C97.3846 16.4198 97.3658 16.6495 97.3658 16.8956C97.3658 17.1394 97.3846 17.3714 97.4221 17.5894C97.4596 17.8074 97.5322 17.9973 97.64 18.1567C97.7479 18.3161 97.8932 18.4426 98.0807 18.534C98.2682 18.6278 98.5097 18.6723 98.8073 18.6723ZM98.8073 13.6914C99.2738 13.6914 99.7098 13.7758 100.118 13.9446C100.525 14.1133 100.884 14.3407 101.189 14.6313C101.494 14.922 101.735 15.2619 101.911 15.651C102.087 16.0401 102.173 16.4573 102.173 16.9003C102.173 17.3433 102.087 17.7582 101.911 18.1426C101.735 18.5294 101.494 18.8669 101.189 19.1552C100.884 19.4459 100.525 19.6756 100.118 19.842C99.7098 20.0107 99.2715 20.0951 98.8073 20.0951C98.3409 20.0951 97.9049 20.0107 97.4971 19.842C97.0892 19.6732 96.7306 19.4459 96.4259 19.1552C96.1212 18.8645 95.8797 18.527 95.7039 18.1426C95.5281 17.7582 95.4414 17.3433 95.4414 16.9003C95.4414 16.4573 95.5281 16.0424 95.7039 15.651C95.8797 15.2619 96.1188 14.922 96.4259 14.6313C96.7306 14.3407 97.0892 14.1133 97.4971 13.9446C97.9049 13.7758 98.3409 13.6914 98.8073 13.6914Z" fill="#004A8D"/>
<path d="M110.191 13.6914C110.726 13.6914 111.195 13.7688 111.593 13.9258C111.994 14.0828 112.327 14.2938 112.589 14.561C112.852 14.8282 113.049 15.1423 113.18 15.5056C113.309 15.869 113.374 16.2604 113.374 16.68V19.9662H111.394V16.5721C111.394 16.4128 111.373 16.251 111.331 16.0916C111.288 15.9322 111.223 15.7869 111.131 15.658C111.04 15.5291 110.918 15.4213 110.766 15.3392C110.613 15.2548 110.421 15.2126 110.194 15.2126C109.964 15.2126 109.776 15.2548 109.626 15.3392C109.476 15.4236 109.357 15.5291 109.265 15.658C109.174 15.7869 109.108 15.9322 109.071 16.0916C109.033 16.251 109.015 16.4104 109.015 16.5721V19.9662H108.991H107.011V16.5721C107.011 16.4128 106.989 16.251 106.947 16.0916C106.905 15.9322 106.839 15.7869 106.746 15.658C106.654 15.5291 106.532 15.4213 106.38 15.3392C106.228 15.2548 106.035 15.2126 105.808 15.2126C105.578 15.2126 105.391 15.2548 105.241 15.3392C105.091 15.4236 104.971 15.5291 104.88 15.658C104.788 15.7869 104.723 15.9322 104.685 16.0916C104.648 16.251 104.629 16.4104 104.629 16.5721V19.9662H102.625V16.68C102.625 16.2604 102.691 15.869 102.82 15.5056C102.948 15.1423 103.145 14.8282 103.41 14.561C103.673 14.2938 104.003 14.0828 104.402 13.9258C104.798 13.7688 105.269 13.6914 105.81 13.6914C106.291 13.6914 106.711 13.75 107.072 13.8695C107.43 13.9891 107.744 14.1532 108.011 14.3688C108.272 14.1555 108.581 13.9891 108.94 13.8695C109.289 13.75 109.708 13.6914 110.191 13.6914Z" fill="#004A8D"/>
<path d="M117.681 13.1521L119.146 11.7786L117.646 11.127L116.352 13.1545H117.681V13.1521ZM117.224 15.1351C116.804 15.1351 116.462 15.2523 116.199 15.4844C115.937 15.7164 115.761 16.0329 115.679 16.429H118.726C118.665 16.0399 118.508 15.7258 118.257 15.4891C118.002 15.2523 117.657 15.1351 117.224 15.1351ZM118.654 19.9098C118.288 20.0012 117.99 20.0575 117.761 20.0762C117.531 20.095 117.341 20.1044 117.189 20.1044C116.685 20.1044 116.228 20.027 115.82 19.87C115.412 19.7129 115.06 19.4949 114.767 19.216C114.474 18.9371 114.247 18.6042 114.085 18.2151C113.923 17.826 113.844 17.3971 113.844 16.933C113.844 16.49 113.926 16.0751 114.09 15.6836C114.254 15.2945 114.484 14.9547 114.777 14.664C115.07 14.3734 115.424 14.146 115.836 13.9772C116.249 13.8085 116.703 13.7264 117.198 13.7264C117.777 13.7264 118.274 13.8178 118.686 14.0007C119.099 14.1835 119.436 14.4296 119.699 14.739C119.962 15.0484 120.156 15.4024 120.283 15.8032C120.409 16.204 120.472 16.6189 120.472 17.0455V17.0689C120.472 17.1533 120.47 17.226 120.468 17.2869C120.463 17.3478 120.458 17.4158 120.451 17.4932H115.677C115.775 17.8823 115.972 18.1846 116.267 18.3979C116.56 18.6113 116.907 18.7308 117.303 18.7519C117.493 18.7683 117.683 18.7613 117.871 18.7355C118.058 18.7097 118.318 18.6488 118.656 18.5573V19.9098H118.654Z" fill="#004A8D"/>
<path d="M124.568 15.0533C124.338 15.0533 124.125 15.072 123.925 15.1095C123.726 15.147 123.56 15.1962 123.421 15.2572C123.314 15.3041 123.217 15.3556 123.128 15.4119C123.042 15.4681 122.969 15.5408 122.91 15.6228C122.854 15.7072 122.81 15.8127 122.779 15.9369C122.749 16.0635 122.735 16.2206 122.735 16.4128V19.9639H120.73V16.3026C120.73 15.9276 120.808 15.5806 120.96 15.2595C121.113 14.9384 121.331 14.6618 121.614 14.4298C121.895 14.1977 122.242 14.0149 122.65 13.8789C123.058 13.7453 123.522 13.6797 124.043 13.6797H124.193C124.237 13.6797 124.293 13.682 124.359 13.6844C124.425 13.6891 124.495 13.6938 124.57 13.7008V15.0533H124.568Z" fill="#004A8D"/>
<path d="M124.27 16.8855C124.27 16.3816 124.356 15.9456 124.527 15.5799C124.698 15.2143 124.921 14.9049 125.191 14.6588C125.463 14.4103 125.77 14.2158 126.112 14.0751C126.456 13.9345 126.794 13.8313 127.132 13.7657C127.467 13.7001 127.783 13.6696 128.083 13.6743C128.381 13.679 128.625 13.7024 128.817 13.7493V15.0432C128.611 15.0127 128.36 15.0174 128.06 15.0549C127.762 15.0924 127.471 15.1838 127.19 15.3245C126.907 15.4651 126.667 15.662 126.468 15.9151C126.269 16.1683 126.17 16.4918 126.17 16.8879C126.17 17.284 126.269 17.6122 126.468 17.8677C126.667 18.1232 126.904 18.32 127.183 18.4583C127.462 18.5966 127.753 18.681 128.053 18.7162C128.355 18.7513 128.608 18.7443 128.814 18.6998V20.0288C128.622 20.0757 128.379 20.0991 128.081 20.1038C127.783 20.1085 127.467 20.078 127.129 20.0124C126.794 19.9468 126.454 19.8436 126.11 19.703C125.765 19.5624 125.458 19.3678 125.188 19.1193C124.916 18.8709 124.696 18.5662 124.525 18.2028C124.354 17.8348 124.27 17.3965 124.27 16.8855Z" fill="#004A8D"/>
<path d="M129.316 13.8862H131.285V19.9664H129.316V13.8862ZM131.288 12.9579H129.319V11.6055H131.288V12.9579Z" fill="#004A8D"/>
<path d="M135.104 18.6723C135.402 18.6723 135.643 18.6278 135.831 18.534C136.018 18.4426 136.164 18.3161 136.272 18.1567C136.379 17.9973 136.45 17.8074 136.49 17.5894C136.527 17.3714 136.546 17.1417 136.546 16.8956C136.546 16.6518 136.527 16.4198 136.49 16.2018C136.452 15.9838 136.379 15.7963 136.272 15.6346C136.164 15.4752 136.018 15.3462 135.831 15.2501C135.643 15.154 135.402 15.1072 135.104 15.1072C134.807 15.1072 134.565 15.154 134.378 15.2501C134.19 15.3462 134.042 15.4728 133.937 15.6346C133.829 15.7939 133.759 15.9838 133.719 16.2018C133.681 16.4198 133.663 16.6495 133.663 16.8956C133.663 17.1394 133.681 17.3714 133.719 17.5894C133.756 17.8074 133.829 17.9973 133.937 18.1567C134.045 18.3161 134.19 18.4426 134.378 18.534C134.563 18.6278 134.807 18.6723 135.104 18.6723ZM135.104 13.6914C135.571 13.6914 136.007 13.7758 136.417 13.9446C136.825 14.1133 137.181 14.3407 137.488 14.6313C137.793 14.922 138.034 15.2619 138.21 15.651C138.386 16.0401 138.473 16.4573 138.473 16.9003C138.473 17.3433 138.386 17.7582 138.21 18.1426C138.034 18.5294 137.793 18.8669 137.488 19.1552C137.183 19.4459 136.825 19.6756 136.417 19.842C136.009 20.0107 135.571 20.0951 135.104 20.0951C134.638 20.0951 134.202 20.0107 133.794 19.842C133.386 19.6732 133.027 19.4459 132.723 19.1552C132.418 18.8645 132.177 18.527 132.001 18.1426C131.825 17.7582 131.738 17.3433 131.738 16.9003C131.738 16.4573 131.825 16.0424 132.001 15.651C132.177 15.2619 132.416 14.922 132.723 14.6313C133.027 14.3407 133.386 14.1133 133.794 13.9446C134.199 13.7758 134.638 13.6914 135.104 13.6914Z" fill="#004A8D"/>
</svg>
