<svg width="27" height="29" viewBox="0 0 27 29" fill="none" xmlns="http://www.w3.org/2000/svg">
<g clip-path="url(#clip0_1076_27244)">
<path d="M25.831 21.4864C25.593 21.2446 25.5507 21.0185 25.6248 20.7346C25.7358 20.3088 25.7676 19.8724 25.794 19.4413C25.9104 17.2962 25.4238 15.2616 24.5776 13.3006C23.5356 10.898 22.0336 8.79498 20.2459 6.89179C20.0714 6.70778 20.0238 6.57634 20.1296 6.31347C20.4099 5.64052 20.2777 4.99911 19.7541 4.4944C19.5425 4.29462 19.5584 4.14741 19.643 3.9266C19.918 3.21158 20.1666 2.49132 20.4416 1.77631C20.5262 1.55024 20.5421 1.33994 20.4681 1.11913C20.2195 0.388343 19.4261 0.178046 18.7862 0.666987C18.1938 1.11913 18.0299 1.12438 17.4216 0.714304C16.0201 -0.226777 14.3646 -0.232034 13.0001 0.709047C12.3919 1.12438 12.2279 1.11913 11.6408 0.666987C11.1807 0.314739 10.7787 0.283194 10.3503 0.577611C9.94309 0.856255 9.81086 1.32417 10.0066 1.86042C10.2551 2.55441 10.4984 3.24313 10.7682 3.9266C10.8634 4.16844 10.8528 4.31565 10.6518 4.51017C10.1282 5.02014 9.99598 5.65103 10.2922 6.32924C10.3979 6.56583 10.3556 6.69201 10.1917 6.87076C8.18187 9.03156 6.51057 11.4132 5.47923 14.1996C5.42634 14.3416 5.38403 14.4572 5.16718 14.4467C4.54309 14.4204 3.92428 14.4835 3.31077 14.5834C2.36405 14.7411 1.45435 14.9987 0.676877 15.5928C0.232606 15.9346 -0.0265513 16.3499 -0.000106595 16.944C0.031627 17.5328 0.0210491 18.1217 -0.000106595 18.7105C-0.0159734 19.1679 0.16385 19.5254 0.486475 19.8303C0.750922 20.0827 1.06826 20.2562 1.38559 20.4349C1.77169 20.6557 2.39049 20.5821 2.56503 20.9712C2.73956 21.3602 2.58089 21.8912 2.61792 22.3592C2.64436 22.7114 2.528 22.8796 2.1948 23.0321C1.2851 23.4369 0.650432 24.0468 0.814389 25.1561C0.840834 25.3191 0.814389 25.4873 0.814389 25.6556C0.814389 25.8501 0.830256 26.0499 0.814389 26.2444C0.735055 26.9542 0.978346 27.5114 1.576 27.9163C1.82458 28.0845 2.08373 28.2422 2.36405 28.3579C3.97717 29.0414 5.65905 29.1307 7.3568 28.8731C8.45161 28.7049 9.52526 28.4052 10.3239 27.5535C10.4508 27.4168 10.5407 27.5167 10.6412 27.5535C11.5879 27.8742 12.5505 28.1003 13.5501 28.2054C15.7503 28.4315 17.9029 28.2738 19.9762 27.4641C20.2142 27.3695 20.3729 27.3958 20.5844 27.5535C21.7004 28.3579 22.938 28.5524 24.2444 28.1108C27.0792 27.1487 27.9255 23.6367 25.831 21.5022V21.4864ZM11.9846 1.92351C12.4976 2.04443 12.9366 1.93929 13.3492 1.63961C14.5762 0.735334 15.835 0.740591 17.0673 1.65013C17.6491 2.08124 18.3525 2.10227 19.0189 1.69219C19.1723 1.59755 19.3151 1.48715 19.4685 1.37674C19.5637 1.50292 19.4896 1.60281 19.4526 1.70796C19.204 2.36514 18.9501 3.02232 18.7227 3.69001C18.6487 3.90557 18.5535 3.99494 18.3102 3.99494C16.2475 3.98443 14.1848 3.98968 12.1221 3.99494C11.9211 3.99494 11.8154 3.9634 11.736 3.73733C11.4716 2.95923 11.1648 2.1969 10.8316 1.30839C11.2812 1.57127 11.5827 1.83939 11.9952 1.93403L11.9846 1.92351ZM19.3151 5.70361C19.2939 6.13472 18.9237 6.41862 18.3842 6.42388C17.3211 6.42388 16.2581 6.42388 15.195 6.42388C14.1319 6.42388 13.0688 6.42388 12.0058 6.42388C11.4451 6.42388 11.1278 6.13998 11.1331 5.66681C11.1384 5.22518 11.4504 4.95705 12.0005 4.95705C14.1425 4.9518 16.2792 4.9518 18.4212 4.95705C18.9713 4.95705 19.3362 5.2725 19.3151 5.70361ZM1.81929 15.9293C2.82947 15.4982 3.90313 15.4561 4.95562 15.4036C6.0187 15.4614 7.06591 15.5035 8.04436 15.9188C8.43574 16.0818 8.90646 16.25 8.91175 16.7337C8.91175 17.2437 8.43574 17.4224 8.02849 17.5854C6.85435 18.0533 5.61674 18.1322 4.37384 18.0743C3.49588 18.0323 2.6232 17.9219 1.80871 17.5644C1.43848 17.4014 0.988924 17.2279 0.983635 16.76C0.973057 16.2605 1.43319 16.0923 1.82458 15.9241L1.81929 15.9293ZM1.89333 19.6674C1.12644 19.415 0.946612 19.1101 0.946612 18.4792C0.946612 18.1585 1.03124 18.19 1.27982 18.2952C3.54877 19.2836 5.84945 19.2888 8.1713 18.4897C8.4093 18.4056 8.63672 18.2899 8.91175 18.169C8.96463 19.1206 8.8377 19.3887 7.99147 19.6674C5.96581 20.3456 3.91899 20.3456 1.88804 19.6674H1.89333ZM9.43006 19.7778C9.51997 19.6884 9.59931 19.62 9.74211 19.6516C10.2763 19.7672 10.7999 19.9144 11.2336 20.2667C11.6461 20.5979 11.625 20.9922 11.186 21.3077C10.6465 21.6967 10.0171 21.8492 9.37188 21.9543C7.76934 22.2172 6.17737 22.1962 4.62242 21.6599C4.17815 21.5075 4.04593 21.4128 3.72859 21.0711C5.2042 21.1605 6.60577 21.1447 7.95445 20.6452C8.49392 20.4454 9.01223 20.1984 9.42477 19.7778H9.43006ZM2.69196 23.7524C2.83476 23.684 2.94583 23.6788 3.08863 23.8102C3.88726 24.5515 4.88687 24.8301 5.9235 24.9984C6.976 25.1719 8.03378 25.1824 9.09157 25.0089C9.2185 24.9879 9.34544 25.0089 9.54113 25.0089C9.00166 25.5136 8.37227 25.6713 7.7376 25.7712C6.02928 26.0446 4.33153 26.0709 2.67609 25.4558C2.66023 25.4558 2.64436 25.4558 2.63378 25.4453C2.24769 25.2613 1.77169 25.0772 1.78226 24.6041C1.79284 24.1151 2.29 23.9416 2.68667 23.7524H2.69196ZM8.84828 27.5272C8.15543 27.8059 7.43084 27.9531 6.6851 27.9899C5.51625 28.0424 4.35269 28.0582 3.21556 27.7165C3.03045 27.6586 2.84005 27.6061 2.65494 27.5325C1.8616 27.2065 1.69764 26.9279 1.77697 26.0446C4.41615 27.217 7.06062 27.2275 9.6998 26.0499C9.80557 26.9068 9.64162 27.2065 8.84299 27.5272H8.84828ZM6.78031 24.1467C5.96581 24.0836 5.1566 23.9784 4.40029 23.642C3.63868 23.3002 3.49588 23.0531 3.60695 22.2172C6.23026 23.3738 8.85886 23.3738 11.4875 22.2277C11.625 23.0216 11.4875 23.316 10.747 23.6209C9.47766 24.1414 8.13956 24.2466 6.78031 24.1414V24.1467ZM19.5954 26.5966C17.8289 27.2065 16.0412 27.4536 14.1901 27.2959C13.0953 27.2013 12.0375 27.0015 11.0009 26.6492C10.7576 26.5651 10.6518 26.4494 10.6888 26.1971C10.6994 26.1235 10.6994 26.0446 10.6888 25.971C10.583 25.1403 10.6888 24.4779 11.6355 24.1046C12.2702 23.8575 12.577 23.2529 12.5135 22.5116C12.4712 22.0174 12.4765 21.5127 12.5135 21.0185C12.5611 20.3508 12.2491 19.8987 11.7413 19.5307C11.2865 19.1994 10.7734 18.9786 10.2287 18.8367C9.97482 18.7683 9.85846 18.6684 9.87433 18.3845C9.90606 17.9482 9.85318 17.5065 9.8902 17.0702C9.94838 16.3131 9.57815 15.8084 8.9805 15.4246C8.20303 14.9251 7.33035 14.7043 6.37835 14.5466C6.98129 12.901 7.81694 11.429 8.81654 10.0462C9.46708 9.13671 10.1811 8.27975 10.948 7.45959C11.0802 7.31764 11.186 7.23352 11.4081 7.31764C11.5827 7.38073 11.7995 7.35444 11.9952 7.35444C14.1372 7.35444 16.2792 7.41227 18.416 7.3229C19.1617 7.29135 19.5742 7.54371 20.0185 8.05894C22.0177 10.3827 23.652 12.8958 24.4453 15.8925C24.8367 17.3699 24.9584 19.1784 24.6622 20.6189C22.7264 19.925 20.997 20.2352 19.717 21.8912C18.5693 23.3738 18.6275 24.9826 19.5901 26.5966H19.5954ZM22.9592 27.3485C21.2561 27.3485 19.8651 25.9605 19.8757 24.2729C19.881 22.6063 21.2667 21.2288 22.9486 21.2183C24.6252 21.2078 26.0532 22.6325 26.0373 24.3044C26.0214 25.9763 24.641 27.3485 22.9644 27.3485H22.9592Z" fill="#00162A"/>
<path d="M22.9548 22.4749C22.9019 22.4539 22.8173 22.517 22.7485 22.5485C22.2355 22.7746 21.7912 23.1111 21.3417 23.4423C21.0931 23.621 21.0825 23.8786 21.257 24.1205C21.421 24.3413 21.6431 24.457 21.9182 24.2782C22.0663 24.1836 22.2196 24.1047 22.4259 23.989C22.4259 24.5621 22.41 25.0826 22.4312 25.6031C22.4418 25.9133 22.6216 26.1025 22.9548 26.092C23.288 26.0868 23.4467 25.9133 23.4467 25.5821C23.4467 25.0721 23.4467 24.5621 23.4467 23.9733C23.6847 24.1047 23.8592 24.1836 24.0179 24.2887C24.2453 24.4359 24.4251 24.3466 24.5838 24.1888C24.7372 24.0311 24.8588 23.805 24.7001 23.621C24.2294 23.0795 23.6212 22.722 22.9548 22.4749Z" fill="#00162A"/>
<path d="M24.4518 15.8874C23.6584 12.8959 22.0241 10.3776 20.0249 8.0538C19.5807 7.53857 19.1681 7.28621 18.4224 7.31776C16.2856 7.40187 14.1436 7.3493 12.0016 7.3493C11.8059 7.3493 11.5891 7.37559 11.4145 7.3125C11.1924 7.23364 11.0866 7.3125 10.9544 7.45445C10.1875 8.26935 9.4735 9.13157 8.82296 10.0411C7.82864 11.4291 6.9877 12.9011 6.38477 14.5415C7.33148 14.7044 8.20945 14.92 8.98692 15.4195C9.58457 15.8033 9.9548 16.308 9.89662 17.065C9.86488 17.5014 9.91248 17.943 9.88075 18.3794C9.85959 18.6686 9.97595 18.7684 10.2351 18.8315C10.7799 18.9735 11.2929 19.1943 11.7477 19.5255C12.2555 19.8935 12.5675 20.3457 12.5199 21.0134C12.4829 21.5076 12.4776 22.0123 12.5199 22.5065C12.5834 23.2478 12.2766 23.8524 11.642 24.0995C10.6952 24.4675 10.5895 25.1299 10.6952 25.9659C10.7058 26.0395 10.7058 26.1183 10.6952 26.1919C10.6582 26.4443 10.764 26.56 11.0073 26.6441C12.0439 26.9963 13.1017 27.2014 14.1965 27.2907C16.0476 27.4485 17.8353 27.2014 19.6018 26.5915C18.6392 24.9827 18.5863 23.3687 19.7287 21.8861C21.0087 20.2353 22.7381 19.9251 24.6739 20.6138C24.9701 19.1733 24.8484 17.3647 24.4571 15.8874H24.4518ZM16.7987 20.5507C16.566 20.6401 16.4496 20.74 16.4866 20.9976C16.5131 21.1763 16.4866 21.3604 16.4919 21.5391C16.5025 21.8598 16.3438 22.007 16.0212 22.007C15.7039 22.007 15.5346 21.8808 15.5664 21.5444C15.5664 21.5128 15.5664 21.4813 15.5664 21.455C15.6668 20.9187 15.5135 20.5665 14.9317 20.3982C14.5879 20.2984 14.3446 19.9829 14.1807 19.6464C14.0696 19.4151 13.9056 19.1417 14.2388 18.9893C14.498 18.8683 14.7836 18.8789 14.9899 19.189C15.3601 19.7463 15.8044 19.883 16.439 19.678C16.9256 19.5255 17.153 19.2101 17.1425 18.6423C17.1636 18.248 16.915 17.9693 16.5395 17.7748C16.0424 17.5172 15.5452 17.2701 15.048 17.0177C14.2811 16.6339 13.8898 16.0083 13.9427 15.1618C13.9903 14.3575 14.4187 13.7791 15.1803 13.4847C15.4764 13.3691 15.6192 13.2166 15.5716 12.8906C15.5452 12.7277 15.5716 12.5594 15.5664 12.3912C15.5505 12.0862 15.7356 11.9864 15.9895 11.9811C16.2486 11.9758 16.5289 12.0494 16.4813 12.3649C16.3808 13.0536 16.5977 13.4847 17.2905 13.7003C17.5603 13.7844 17.7189 14.0736 17.8512 14.3312C17.9622 14.5467 18.1103 14.8254 17.83 14.9673C17.5709 15.104 17.2535 15.125 17.0314 14.7938C16.6876 14.2891 16.2063 14.1209 15.6668 14.2628C15.2067 14.3837 14.9317 14.6939 14.8682 15.1408C14.8047 15.5824 15.0057 15.9452 15.3971 16.1555C15.889 16.4236 16.3861 16.6655 16.8939 16.9021C17.6872 17.2701 18.1156 17.8957 18.0998 18.7579C18.0839 19.6201 17.6079 20.2248 16.7987 20.5402V20.5507Z" fill="#00162A"/>
</g>
<defs>
<clipPath id="clip0_1076_27244">
<rect width="27" height="29" fill="white"/>
</clipPath>
</defs>
</svg>
