<svg width="29" height="21" viewBox="0 0 29 21" fill="none" xmlns="http://www.w3.org/2000/svg">
<g clip-path="url(#clip0_1076_27258)">
<path d="M14.9818 2.00426C19.5251 2.00426 23.1986 5.80345 23.2027 10.5066C23.2027 15.197 19.521 18.9961 14.9694 18.9919C10.4343 18.9919 6.77322 15.1756 6.77735 10.464C6.78147 5.79919 10.4632 2 14.9859 2L14.9818 2.00426ZM14.9818 16.9921C18.4079 17.0006 21.2567 14.0798 21.2691 10.5407C21.2773 6.95046 18.4697 4.01259 15.0189 4.00406C11.5516 3.99553 8.7192 6.90355 8.71095 10.481C8.70271 14.0585 11.5186 16.9836 14.9818 16.9963V16.9921Z" fill="#00162A"/>
<path d="M29.0009 6.01244C29.0009 7.76067 29.0009 9.50889 29.0009 11.2571C29.0009 11.8498 28.8608 11.9948 28.2959 11.999C27.8466 11.999 27.393 12.0033 26.9437 11.999C25.4141 11.982 24.2803 10.7156 24.47 9.15498C24.7297 7.01447 25.0224 4.87396 25.3399 2.74199C25.5584 1.26666 26.8323 0.115386 28.2671 0.0130513C28.8195 -0.0253243 29.0009 0.14097 29.0009 0.716605C29.0009 2.48188 29.0009 4.24716 29.0009 6.01244Z" fill="#00162A"/>
<path d="M1.94138 2.42538C1.94138 3.0735 1.94138 3.72589 1.94138 4.37401C1.94138 4.71939 2.06507 4.98376 2.42375 4.98376C2.78244 4.98376 2.90612 4.71939 2.90612 4.37401C2.90612 3.09056 2.92262 1.81137 2.89788 0.52792C2.88963 0.127108 3.02569 -0.000810839 3.39262 -0.000810839C3.75543 -0.000810839 3.8956 0.11858 3.88736 0.523656C3.86262 1.773 3.88323 3.02234 3.87499 4.26741C3.87499 4.63411 3.93271 4.97949 4.35736 4.97949C4.77789 4.97949 4.84798 4.64264 4.84385 4.27168C4.83973 3.02234 4.86447 1.773 4.83149 0.52792C4.81912 0.0759405 5.00877 -0.0136027 5.37158 -0.000810839C6.04772 0.0247729 6.72799 0.583352 6.7486 1.29543C6.78571 2.72386 6.83106 4.16508 6.67852 5.58071C6.48887 7.30762 4.8521 8.59533 3.23183 8.48873C1.48787 8.37787 0.0531238 6.8599 0.0160183 5.06051C-0.00871867 3.89645 -0.000473007 2.73239 0.0118955 1.56406C0.024264 0.664367 0.762251 -0.0519783 1.55796 0.00345312C1.83006 0.0247729 1.95787 0.114316 1.94963 0.425585C1.92901 1.09076 1.9455 1.75594 1.9455 2.42112L1.94138 2.42538Z" fill="#00162A"/>
<path d="M1.81191 9.20508C2.90034 9.58031 3.89394 9.57178 4.91228 9.21361C4.98237 11.1281 5.05658 12.9872 5.12255 14.8463C5.17202 16.2449 5.22562 17.6392 5.25035 19.0378C5.26685 20.0227 4.62368 20.7903 3.70017 20.9693C2.83437 21.1356 1.95209 20.6069 1.63875 19.7115C1.56454 19.4983 1.52744 19.2595 1.53156 19.0335C1.61814 16.2918 1.72121 13.5458 1.81191 10.8041C1.8284 10.3052 1.81191 9.81056 1.81191 9.20934V9.20508Z" fill="#00162A"/>
<path d="M25.9373 12.9492H29.0006C29.0006 14.2583 29.0006 15.5545 29.0006 16.8507C29.0006 17.55 29.0006 18.2493 29.0006 18.9486C28.9965 20.1553 28.1884 21.0209 27.1 20.991C26.0033 20.9612 25.2323 20.0743 25.3354 18.842C25.4756 17.1194 25.6817 15.4053 25.8631 13.6869C25.8879 13.4396 25.9167 13.1965 25.9415 12.9492H25.9373Z" fill="#00162A"/>
<path d="M20.3006 10.5367C20.2923 13.5726 17.8887 16.0116 14.9244 15.9945C12.0178 15.9775 9.66365 13.5001 9.6719 10.4599C9.68014 7.42397 12.0838 4.98499 15.0481 5.00204C17.9547 5.0191 20.3129 7.50072 20.3006 10.5367Z" fill="#00162A"/>
</g>
<defs>
<clipPath id="clip0_1076_27258">
<rect width="29" height="21" fill="white"/>
</clipPath>
</defs>
</svg>
